<?xml version="1.0" encoding="UTF-8"?>
<svg width="63px" height="50px" viewBox="0 0 63 50" version="1.1" xmlns="http://www.w3.org/2000/svg" xmlns:xlink="http://www.w3.org/1999/xlink">
    <!-- Generator: Sketch 48.2 (47327) - http://www.bohemiancoding.com/sketch -->
    <title>Group 25</title>
    <desc>Created with Sketch.</desc>
    <defs></defs>
    <g id="Home-Copy" stroke="none" stroke-width="1" fill="none" fill-rule="evenodd" transform="translate(-1186.000000, -1645.000000)">
        <g id="Group-19" transform="translate(166.000000, 1599.000000)" fill="#F9F8F7" fill-rule="nonzero">
            <g id="Group-25" transform="translate(1020.000000, 46.000000)">
                <path d="M35.4375,27.7644231 L35.4375,0 L63,0 L63,28.1610577 C63,47.1995192 45.28125,49.5793269 45.28125,49.5793269 L42.91875,44.0264423 C42.91875,44.0264423 50.79375,42.8365385 52.36875,36.4903846 C53.94375,31.7307692 50.79375,27.7644231 50.79375,27.7644231 L35.4375,27.7644231 Z" id="Shape"></path>
                <path d="M0,27.7644231 L0,0 L27.5625,0 L27.5625,28.1610577 C27.5625,47.1995192 9.84375,49.5793269 9.84375,49.5793269 L7.48125,44.0264423 C7.48125,44.0264423 15.35625,42.8365385 16.93125,36.4903846 C18.50625,31.7307692 15.35625,27.7644231 15.35625,27.7644231 L0,27.7644231 Z" id="Shape"></path>
            </g>
        </g>
    </g>
</svg>