<?xml version="1.0" encoding="utf-8"?>
<!-- Generator: Adobe Illustrator 16.0.0, SVG Export Plug-In . SVG Version: 6.00 Build 0)  -->
<!DOCTYPE svg PUBLIC "-//W3C//DTD SVG 1.1//EN" "http://www.w3.org/Graphics/SVG/1.1/DTD/svg11.dtd">
<svg version="1.1" id="Layer_1" xmlns="http://www.w3.org/2000/svg" xmlns:xlink="http://www.w3.org/1999/xlink" x="0px" y="0px"
	 width="134.5px" height="42.182px" viewBox="0 1.182 134.5 42.182" enable-background="new 0 1.182 134.5 42.182"
	 xml:space="preserve">
<g>
	<g>
		<g>
			<g>
				<path fill="#FA3048" d="M29.865,23.108c-0.087,0-0.173-0.031-0.241-0.091c-4.045-3.536-4.382-5.779-4.284-7.159
					c0.065-0.921,0.493-1.78,1.145-2.299c0.604-0.48,1.382-0.665,2.252-0.528c1.439,0.226,2.149,1.145,2.474,1.771
					c0.512-0.485,1.487-1.118,2.917-0.858l0,0c0.864,0.158,1.54,0.587,1.954,1.241c0.444,0.705,0.565,1.657,0.323,2.546
					c-0.362,1.335-1.42,3.342-6.403,5.349C29.958,23.1,29.911,23.108,29.865,23.108z M26.942,14.135
					c-0.582,0.463-0.832,1.22-0.871,1.775c-0.086,1.205,0.226,3.174,3.865,6.406c4.498-1.854,5.443-3.609,5.759-4.775
					c0.146-0.537,0.161-1.334-0.236-1.963c-0.303-0.481-0.797-0.789-1.463-0.91c-1.692-0.31-2.56,0.972-2.598,1.027
					c-0.08,0.122-0.222,0.188-0.37,0.159c-0.143-0.024-0.258-0.13-0.292-0.272c-0.017-0.063-0.418-1.559-2.113-1.824
					C28.014,13.663,27.429,13.747,26.942,14.135z"/>
			</g>
		</g>
	</g>
	<g>
		<g>
			<path fill="#878787" d="M9.61,29.651c-0.183,0-0.355-0.113-0.42-0.296L2.863,11.567c-0.17-0.48-0.146-0.998,0.074-1.458
				C3.156,9.648,3.542,9.3,4.022,9.13l4.042-1.439c0.233-0.082,0.487,0.038,0.569,0.271c0.083,0.231-0.039,0.487-0.27,0.569
				L4.321,9.968c-0.257,0.092-0.462,0.277-0.578,0.522c-0.117,0.246-0.131,0.523-0.04,0.779l6.327,17.788
				c0.082,0.232-0.039,0.486-0.271,0.568C9.71,29.643,9.659,29.651,9.61,29.651z M12.502,27.399c-0.215,0-0.405-0.158-0.439-0.379
				L9.186,7.98C9.11,7.475,9.234,6.972,9.537,6.561c0.303-0.41,0.748-0.679,1.252-0.754l4.208-0.636
				c0.236-0.038,0.469,0.13,0.507,0.375c0.037,0.244-0.131,0.469-0.375,0.507l-4.208,0.636c-0.268,0.041-0.506,0.184-0.667,0.402
				c-0.162,0.219-0.229,0.489-0.188,0.756l2.877,19.041c0.037,0.243-0.131,0.471-0.374,0.507
				C12.547,27.398,12.525,27.399,12.502,27.399z M16.404,26.68c-0.001,0-0.002,0-0.003,0c-0.245,0-0.444-0.293-0.442-0.539
				l0.132-20.065c0.003-0.51,0.205-1.01,0.568-1.369c0.363-0.359,0.844-0.543,1.354-0.563l4.091,0.022
				c0.246,0.001,0.444,0.253,0.442,0.499c-0.001,0.245-0.2,0.494-0.446,0.494c-0.001,0-0.002,0-0.002,0l-4.091-0.08
				c-0.272,0.02-0.529,0.075-0.723,0.266c-0.193,0.192-0.301,0.434-0.303,0.706L16.85,26.154
				C16.848,26.399,16.649,26.68,16.404,26.68z M38.652,25.426c-0.024,0-0.049-0.004-0.075-0.006
				c-0.242-0.041-0.405-0.271-0.364-0.516L41.08,7.984c0.045-0.268-0.016-0.539-0.173-0.76c-0.157-0.221-0.392-0.369-0.66-0.414
				L25.201,4.26c-0.267-0.046-0.538,0.017-0.76,0.174c-0.221,0.158-0.369,0.392-0.414,0.661l-2.985,17.608
				c-0.041,0.243-0.269,0.407-0.514,0.365c-0.242-0.04-0.407-0.271-0.365-0.515l2.984-17.607c0.086-0.503,0.362-0.942,0.778-1.238
				c0.415-0.295,0.92-0.411,1.425-0.326l15.045,2.55c0.503,0.085,0.943,0.361,1.239,0.777c0.294,0.416,0.41,0.922,0.325,1.425
				l-2.868,16.921C39.055,25.271,38.865,25.426,38.652,25.426z M9.525,13.521c0.156,0.189,0.129,0.47-0.061,0.627
				c-0.19,0.156-0.471,0.13-0.627-0.061L8.016,13.09l-1.359,0.484l-0.023,1.277c-0.003,0.244-0.202,0.408-0.445,0.408
				c-0.003,0-0.005,0-0.008,0c-0.246,0-0.442-0.179-0.438-0.424l0.074-4.272c0.007-0.41,0.279-0.528,0.362-0.558
				c0.083-0.028,0.375-0.094,0.636,0.222L9.525,13.521z M6.692,11.484l-0.02,1.139l0.741-0.263L6.692,11.484z M15.354,11.167
				c0.117,0.216,0.037,0.486-0.179,0.603c-0.215,0.119-0.486,0.04-0.604-0.179l-0.615-1.133l-1.428,0.214l-0.271,1.279
				c-0.044,0.209-0.229,0.353-0.436,0.353c-0.03,0-0.062-0.002-0.092-0.009c-0.241-0.052-0.395-0.289-0.343-0.529l0.888-4.193
				c0.085-0.401,0.376-0.474,0.464-0.486c0.089-0.016,0.387-0.026,0.583,0.335L15.354,11.167z M12.962,8.626l-0.237,1.115
				l0.778-0.117L12.962,8.626z M21.712,10.273c0.083,0.231-0.04,0.487-0.271,0.569c-0.05,0.018-0.1,0.025-0.149,0.025
				c-0.183,0-0.354-0.114-0.419-0.296l-0.432-1.217l-1.443-0.009l-0.467,1.22c-0.088,0.229-0.344,0.347-0.575,0.257
				c-0.229-0.089-0.345-0.347-0.257-0.575l1.533-4.004c0.147-0.383,0.433-0.418,0.533-0.408c0.088,0.001,0.386,0.034,0.523,0.421
				L21.712,10.273z M19.337,8.457l0.787,0.005l-0.38-1.07L19.337,8.457z M28.127,10.076c0.043,0.242-0.117,0.475-0.359,0.519
				c-0.026,0.004-0.054,0.006-0.08,0.006c-0.21,0-0.398-0.151-0.438-0.366l-0.231-1.27l-1.423-0.241l-0.657,1.129
				c-0.125,0.213-0.397,0.286-0.609,0.161c-0.213-0.124-0.285-0.396-0.162-0.609L26.324,5.7c0.207-0.355,0.507-0.33,0.591-0.318
				c0.088,0.016,0.376,0.097,0.45,0.5L28.127,10.076z M26.075,7.901l0.776,0.131l-0.204-1.116L26.075,7.901z"/>
		</g>
	</g>
	<g>
		<g>
			<g>
				<path fill="#FFD31C" d="M16.378,42.338c-4.15,0-7.526-3.375-7.526-7.524c0-4.065,3.183-7.371,7.245-7.521
					c0.241,0.002,0.452,0.184,0.46,0.429c0.009,0.247-0.183,0.454-0.429,0.463c-3.58,0.132-6.385,3.043-6.385,6.629
					c0,3.658,2.976,6.636,6.634,6.636c2.154,0,4.184-1.055,5.427-2.818c0.142-0.2,0.419-0.248,0.621-0.105
					c0.201,0.141,0.25,0.421,0.107,0.62C21.124,41.145,18.822,42.338,16.378,42.338z M35.118,40.59
					c-2.351,0-4.523-1.067-5.961-2.932c-0.151-0.195-0.114-0.475,0.081-0.625c0.194-0.148,0.475-0.113,0.625,0.08
					c1.269,1.643,3.184,2.586,5.256,2.586c3.657,0,6.633-2.978,6.633-6.636s-2.976-6.636-6.633-6.636
					c-1.087,0-2.165,0.27-3.116,0.775c-0.218,0.117-0.486,0.032-0.603-0.183c-0.115-0.216-0.033-0.485,0.185-0.604
					c1.079-0.574,2.3-0.879,3.535-0.879c4.148,0,7.525,3.375,7.525,7.525C42.643,37.213,39.266,40.59,35.118,40.59z M16.378,40.581
					c-3.18,0-5.765-2.586-5.765-5.767c0-2.915,2.179-5.374,5.068-5.722c0.246-0.037,0.466,0.144,0.495,0.387
					c0.03,0.246-0.145,0.467-0.389,0.497c-2.441,0.293-4.284,2.374-4.284,4.838c0,2.688,2.187,4.875,4.875,4.875
					c1.43,0,2.785-0.626,3.713-1.717c0.159-0.188,0.439-0.21,0.628-0.052c0.188,0.16,0.209,0.44,0.05,0.629
					C19.671,39.838,18.07,40.581,16.378,40.581z M35.118,38.829c-1.963,0-3.773-0.982-4.841-2.631
					c-0.134-0.207-0.076-0.482,0.131-0.617c0.206-0.135,0.483-0.074,0.617,0.133c0.903,1.395,2.434,2.226,4.093,2.226
					c2.687,0,4.873-2.188,4.873-4.873c0-2.688-2.187-4.875-4.873-4.875c-0.864,0-1.711,0.229-2.452,0.66
					c-0.212,0.125-0.486,0.053-0.61-0.161c-0.123-0.211-0.052-0.484,0.162-0.607c0.877-0.512,1.879-0.781,2.9-0.781
					c3.179,0,5.764,2.587,5.764,5.766C40.881,36.243,38.296,38.829,35.118,38.829z M15.025,38.459c-0.061,0-0.124-0.013-0.181-0.039
					c-0.156-0.066-0.257-0.217-0.265-0.389l-0.085-2.094l-1.773-1.116c-0.143-0.091-0.223-0.254-0.205-0.424
					c0.018-0.169,0.129-0.312,0.288-0.37l1.965-0.729l0.514-2.031c0.061-0.238,0.305-0.387,0.542-0.322
					c0.238,0.059,0.382,0.303,0.322,0.541l-0.572,2.258c-0.036,0.144-0.139,0.258-0.276,0.311l-1.338,0.494l1.207,0.76
					c0.124,0.08,0.202,0.214,0.208,0.361l0.058,1.424l1.097-0.913c0.112-0.095,0.264-0.124,0.405-0.085l1.696,0.475
					c0.237,0.064,0.375,0.313,0.309,0.549c-0.065,0.236-0.314,0.375-0.548,0.309l-1.472-0.411l-1.61,1.341
					C15.229,38.422,15.128,38.459,15.025,38.459z M24.17,38.163c-4.149,0-7.525-3.377-7.525-7.527c0-4.148,3.376-7.524,7.525-7.524
					c4.151,0,7.527,3.376,7.527,7.524C31.697,34.786,28.321,38.163,24.17,38.163z M24.17,24c-3.657,0-6.633,2.978-6.633,6.635
					c0,3.658,2.976,6.636,6.633,6.636c3.659,0,6.636-2.978,6.636-6.636S27.829,24,24.17,24z M35.661,36.95
					c-0.148,0-0.287-0.074-0.371-0.199l-1.161-1.744l-2.097-0.031c-0.167-0.002-0.322-0.102-0.395-0.254
					c-0.072-0.153-0.052-0.334,0.053-0.469l1.3-1.644l-0.618-2.002c-0.049-0.162-0.003-0.339,0.119-0.455
					c0.124-0.116,0.302-0.153,0.461-0.094l1.965,0.728l1.714-1.205c0.14-0.099,0.321-0.107,0.469-0.027
					c0.149,0.082,0.238,0.24,0.231,0.41l-0.085,2.094l1.677,1.256c0.136,0.104,0.203,0.271,0.17,0.438
					c-0.031,0.168-0.155,0.303-0.317,0.349l-2.018,0.565l-0.678,1.982c-0.055,0.161-0.196,0.275-0.365,0.299
					C35.699,36.946,35.681,36.95,35.661,36.95z M32.95,34.094l1.428,0.023c0.146,0.004,0.283,0.075,0.363,0.198l0.791,1.188
					l0.46-1.352c0.047-0.138,0.16-0.244,0.302-0.285l1.374-0.385l-1.141-0.855c-0.117-0.088-0.184-0.229-0.179-0.375l0.058-1.426
					l-1.167,0.82c-0.12,0.084-0.273,0.105-0.411,0.055l-1.338-0.496l0.42,1.362c0.043,0.142,0.015,0.293-0.076,0.408L32.95,34.094z
					 M24.17,36.4c-3.178,0-5.764-2.586-5.764-5.765c0-3.18,2.586-5.766,5.764-5.766c3.18,0,5.766,2.586,5.766,5.766
					C29.936,33.814,27.35,36.4,24.17,36.4z M24.17,25.76c-2.687,0-4.874,2.188-4.874,4.875c0,2.687,2.187,4.873,4.874,4.873
					c2.689,0,4.875-2.188,4.875-4.873C29.044,27.948,26.859,25.76,24.17,25.76z M22.109,33.918c-0.092,0-0.185-0.028-0.262-0.086
					c-0.138-0.1-0.207-0.268-0.178-0.436l0.354-2.066l-1.5-1.463c-0.121-0.117-0.165-0.293-0.112-0.455
					c0.052-0.16,0.192-0.279,0.36-0.305l2.073-0.3l0.927-1.88c0.151-0.307,0.649-0.307,0.8,0l0.926,1.88l2.074,0.3
					c0.168,0.025,0.307,0.145,0.359,0.305c0.052,0.162,0.008,0.338-0.113,0.455l-1.499,1.463l0.354,2.066
					c0.028,0.168-0.041,0.336-0.179,0.436c-0.136,0.102-0.318,0.113-0.468,0.033L24.17,32.89l-1.854,0.976
					C22.251,33.902,22.18,33.918,22.109,33.918z M24.17,31.943c0.071,0,0.143,0.017,0.208,0.052l1.262,0.664l-0.241-1.406
					c-0.023-0.144,0.023-0.293,0.128-0.395l1.022-0.996l-1.411-0.205c-0.145-0.021-0.271-0.111-0.335-0.244l-0.633-1.279
					l-0.63,1.279c-0.065,0.133-0.191,0.223-0.335,0.243l-1.413,0.205l1.022,0.996c0.105,0.103,0.152,0.251,0.128,0.394l-0.241,1.408
					l1.262-0.664C24.027,31.959,24.099,31.943,24.17,31.943z M23.14,29.315h0.006H23.14z"/>
			</g>
		</g>
	</g>
</g>
<g>
	<g enable-background="new    ">
		<path fill="#888888" d="M51.049,26.761V10.182h3.554V23.63h7.011v3.131H51.049z"/>
		<path fill="#888888" d="M63.999,26.761V10.182h11.73v3.133h-8.201v3.429h8.028v3.131h-8.028v3.755h8.201v3.131H63.999z"/>
		<path fill="#888888" d="M83.137,26.761L76.75,10.182h4.001l4.599,12.727l4.599-12.727h4l-6.386,16.579H83.137z"/>
		<path fill="#888888" d="M95.489,26.761V10.182h3.531v16.579H95.489z"/>
		<path fill="#888888" d="M102.301,26.761V10.182h11.73v3.133h-8.201v3.429h8.027v3.131h-8.027v3.755h8.201v3.131H102.301z"/>
		<path fill="#888888" d="M128.224,26.761l-7.903-10.813v10.813h-3.53V10.182h3.63l7.681,10.414V10.182h3.529v16.579H128.224z"/>
	</g>
	<g enable-background="new    ">
		<path fill="#727272" d="M53.831,35.51c-0.33,0-0.639-0.058-0.925-0.166c-0.287-0.111-0.535-0.266-0.746-0.465
			c-0.212-0.202-0.378-0.441-0.499-0.721c-0.121-0.28-0.182-0.59-0.182-0.931c0-0.337,0.061-0.647,0.182-0.927
			c0.121-0.28,0.287-0.519,0.499-0.721c0.211-0.199,0.459-0.354,0.746-0.466c0.286-0.111,0.595-0.164,0.925-0.164
			c0.242,0,0.458,0.03,0.65,0.091c0.192,0.057,0.362,0.138,0.513,0.238c0.149,0.102,0.279,0.22,0.391,0.348
			c0.107,0.131,0.203,0.263,0.284,0.4l-0.807,0.396c-0.093-0.18-0.232-0.331-0.418-0.456c-0.184-0.124-0.388-0.185-0.613-0.185
			c-0.203,0-0.388,0.037-0.558,0.107c-0.171,0.074-0.317,0.176-0.44,0.307c-0.122,0.128-0.219,0.283-0.286,0.459
			c-0.069,0.175-0.104,0.367-0.104,0.572c0,0.209,0.034,0.401,0.104,0.579c0.067,0.18,0.164,0.331,0.286,0.459
			c0.123,0.129,0.27,0.229,0.44,0.3c0.17,0.075,0.354,0.111,0.558,0.111c0.226,0,0.43-0.064,0.613-0.186
			c0.186-0.125,0.325-0.276,0.418-0.454l0.807,0.388c-0.081,0.138-0.177,0.269-0.284,0.4c-0.111,0.129-0.241,0.246-0.391,0.347
			c-0.15,0.102-0.32,0.183-0.513,0.243C54.289,35.48,54.073,35.51,53.831,35.51z"/>
		<path fill="#727272" d="M59.229,35.429l-0.277-0.745h-1.889l-0.278,0.745h-1.063l1.696-4.405h1.177l1.698,4.405H59.229z
			 M58.007,31.955l-0.688,1.897h1.375L58.007,31.955z"/>
		<path fill="#727272" d="M62.229,35.51c-0.428,0-0.795-0.064-1.101-0.192s-0.563-0.297-0.775-0.509l0.515-0.735
			c0.153,0.166,0.352,0.307,0.586,0.425c0.24,0.118,0.51,0.179,0.814,0.179c0.265,0,0.456-0.05,0.581-0.148
			c0.123-0.102,0.186-0.212,0.186-0.34s-0.064-0.227-0.188-0.293c-0.125-0.064-0.283-0.121-0.468-0.172
			c-0.189-0.048-0.392-0.099-0.612-0.149c-0.221-0.05-0.423-0.124-0.611-0.219c-0.188-0.098-0.344-0.229-0.469-0.394
			c-0.125-0.165-0.188-0.388-0.188-0.664c0-0.186,0.039-0.357,0.115-0.52c0.077-0.161,0.188-0.303,0.332-0.425
			c0.143-0.124,0.317-0.222,0.523-0.293c0.209-0.067,0.441-0.104,0.7-0.104c0.701,0,1.274,0.206,1.72,0.614l-0.523,0.7
			c-0.182-0.165-0.384-0.29-0.608-0.367c-0.224-0.074-0.448-0.115-0.673-0.115c-0.198,0-0.354,0.041-0.46,0.118
			c-0.108,0.081-0.162,0.186-0.162,0.316c0,0.115,0.063,0.206,0.188,0.267c0.129,0.061,0.283,0.115,0.473,0.162
			c0.187,0.047,0.39,0.098,0.609,0.151c0.217,0.055,0.421,0.132,0.608,0.232c0.188,0.099,0.345,0.232,0.47,0.397
			c0.126,0.17,0.188,0.389,0.188,0.661c0,0.202-0.036,0.392-0.108,0.563c-0.073,0.172-0.184,0.319-0.332,0.444
			c-0.149,0.125-0.335,0.226-0.558,0.297C62.783,35.473,62.523,35.51,62.229,35.51z"/>
		<path fill="#727272" d="M64.621,35.429v-4.405h0.939v4.405H64.621z"/>
		<path fill="#727272" d="M69.47,35.429l-2.1-2.875v2.875h-0.938v-4.405h0.964l2.04,2.767v-2.767h0.941v4.405H69.47z"/>
		<path fill="#727272" d="M73.342,35.51c-0.335,0-0.644-0.058-0.927-0.168c-0.279-0.115-0.523-0.271-0.728-0.473
			c-0.206-0.202-0.366-0.444-0.48-0.725c-0.114-0.279-0.17-0.587-0.17-0.917s0.056-0.633,0.17-0.913
			c0.114-0.279,0.274-0.522,0.48-0.725c0.204-0.203,0.448-0.36,0.728-0.472c0.283-0.111,0.592-0.168,0.927-0.168
			c0.331,0,0.638,0.057,0.917,0.168c0.283,0.111,0.525,0.269,0.731,0.472c0.206,0.202,0.364,0.445,0.479,0.725
			c0.115,0.28,0.172,0.583,0.172,0.913s-0.057,0.638-0.172,0.917c-0.114,0.28-0.272,0.522-0.479,0.725s-0.448,0.357-0.731,0.473
			C73.979,35.453,73.673,35.51,73.342,35.51z M73.342,34.677c0.202,0,0.386-0.036,0.552-0.114c0.165-0.074,0.305-0.176,0.42-0.304
			c0.113-0.127,0.204-0.279,0.267-0.454c0.063-0.176,0.097-0.368,0.097-0.577c0-0.205-0.034-0.397-0.097-0.572
			c-0.063-0.176-0.153-0.331-0.267-0.459c-0.115-0.131-0.255-0.232-0.42-0.307c-0.166-0.07-0.35-0.107-0.552-0.107
			c-0.208,0-0.394,0.037-0.56,0.107c-0.165,0.074-0.303,0.176-0.418,0.307c-0.113,0.128-0.204,0.283-0.269,0.459
			c-0.064,0.175-0.095,0.367-0.095,0.572c0,0.209,0.03,0.401,0.095,0.577c0.064,0.175,0.155,0.327,0.269,0.454
			c0.115,0.128,0.253,0.229,0.418,0.304C72.948,34.641,73.134,34.677,73.342,34.677z"/>
		<path fill="#727272" d="M80.491,35.429l-0.867-1.563h-0.687v1.563H78v-4.405h2.061c0.23,0,0.436,0.034,0.619,0.104
			c0.183,0.07,0.339,0.168,0.468,0.297c0.131,0.128,0.229,0.279,0.297,0.451c0.069,0.176,0.104,0.364,0.104,0.566
			c0,0.195-0.029,0.364-0.086,0.516c-0.058,0.148-0.132,0.279-0.222,0.388c-0.089,0.107-0.193,0.196-0.312,0.263
			c-0.114,0.067-0.232,0.115-0.352,0.142l0.997,1.679H80.491z M79.928,33.033c0.186,0,0.341-0.054,0.467-0.158
			c0.127-0.104,0.189-0.249,0.189-0.438c0-0.182-0.063-0.323-0.189-0.428c-0.126-0.102-0.281-0.152-0.467-0.152h-0.99v1.177H79.928z
			"/>
		<path fill="#727272" d="M82.248,35.429v-4.405h3.119v0.832h-2.18v0.91h2.133v0.833h-2.133v0.998h2.18v0.832H82.248z"/>
		<path fill="#727272" d="M87.674,35.51c-0.429,0-0.796-0.064-1.103-0.192c-0.306-0.128-0.563-0.297-0.775-0.509l0.516-0.735
			c0.153,0.166,0.351,0.307,0.587,0.425c0.238,0.118,0.509,0.179,0.813,0.179c0.265,0,0.457-0.05,0.582-0.148
			c0.122-0.102,0.185-0.212,0.185-0.34s-0.063-0.227-0.188-0.293c-0.125-0.064-0.283-0.121-0.469-0.172
			c-0.188-0.048-0.392-0.099-0.611-0.149c-0.221-0.05-0.423-0.124-0.612-0.219c-0.187-0.098-0.344-0.229-0.469-0.394
			c-0.124-0.165-0.188-0.388-0.188-0.664c0-0.186,0.039-0.357,0.117-0.52c0.075-0.161,0.187-0.303,0.33-0.425
			c0.143-0.124,0.318-0.222,0.524-0.293c0.208-0.067,0.44-0.104,0.701-0.104c0.7,0,1.273,0.206,1.718,0.614l-0.521,0.7
			c-0.183-0.165-0.385-0.29-0.608-0.367c-0.225-0.074-0.45-0.115-0.675-0.115c-0.197,0-0.352,0.041-0.46,0.118
			c-0.107,0.081-0.162,0.186-0.162,0.316c0,0.115,0.064,0.206,0.189,0.267c0.128,0.061,0.283,0.115,0.472,0.162
			c0.188,0.047,0.392,0.098,0.609,0.151c0.218,0.055,0.422,0.132,0.608,0.232c0.188,0.099,0.346,0.232,0.471,0.397
			c0.127,0.17,0.189,0.389,0.189,0.661c0,0.202-0.038,0.392-0.11,0.563c-0.073,0.172-0.184,0.319-0.332,0.444
			c-0.147,0.125-0.333,0.226-0.556,0.297C88.226,35.473,87.967,35.51,87.674,35.51z"/>
		<path fill="#727272" d="M92.159,35.51c-0.336,0-0.644-0.058-0.927-0.168c-0.28-0.115-0.524-0.271-0.729-0.473
			c-0.205-0.202-0.365-0.444-0.48-0.725c-0.113-0.279-0.17-0.587-0.17-0.917s0.057-0.633,0.17-0.913
			c0.115-0.279,0.275-0.522,0.48-0.725c0.204-0.203,0.448-0.36,0.729-0.472c0.283-0.111,0.591-0.168,0.927-0.168
			c0.33,0,0.638,0.057,0.917,0.168c0.282,0.111,0.525,0.269,0.73,0.472c0.206,0.202,0.364,0.445,0.479,0.725
			c0.114,0.28,0.172,0.583,0.172,0.913s-0.058,0.638-0.172,0.917c-0.115,0.28-0.273,0.522-0.479,0.725
			c-0.205,0.202-0.448,0.357-0.73,0.473C92.797,35.453,92.489,35.51,92.159,35.51z M92.159,34.677c0.202,0,0.386-0.036,0.551-0.114
			c0.166-0.074,0.305-0.176,0.42-0.304c0.115-0.127,0.204-0.279,0.269-0.454c0.062-0.176,0.096-0.368,0.096-0.577
			c0-0.205-0.034-0.397-0.096-0.572c-0.064-0.176-0.153-0.331-0.269-0.459c-0.115-0.131-0.254-0.232-0.42-0.307
			c-0.165-0.07-0.349-0.107-0.551-0.107c-0.209,0-0.395,0.037-0.56,0.107c-0.165,0.074-0.304,0.176-0.418,0.307
			c-0.114,0.128-0.205,0.283-0.27,0.459c-0.064,0.175-0.095,0.367-0.095,0.572c0,0.209,0.03,0.401,0.095,0.577
			c0.064,0.175,0.155,0.327,0.27,0.454c0.114,0.128,0.253,0.229,0.418,0.304C91.765,34.641,91.95,34.677,92.159,34.677z"/>
		<path fill="#727272" d="M97.608,35.429l-0.864-1.563h-0.688v1.563h-0.938v-4.405h2.063c0.229,0,0.436,0.034,0.617,0.104
			c0.183,0.07,0.34,0.168,0.469,0.297c0.132,0.128,0.229,0.279,0.298,0.451c0.069,0.176,0.103,0.364,0.103,0.566
			c0,0.195-0.03,0.364-0.087,0.516c-0.058,0.148-0.13,0.279-0.22,0.388c-0.091,0.107-0.194,0.196-0.312,0.263
			c-0.116,0.067-0.234,0.115-0.352,0.142l0.997,1.679H97.608z M97.048,33.033c0.186,0,0.341-0.054,0.468-0.158
			c0.123-0.104,0.188-0.249,0.188-0.438c0-0.182-0.064-0.323-0.188-0.428c-0.127-0.102-0.282-0.152-0.468-0.152h-0.991v1.177H97.048
			z"/>
		<path fill="#727272" d="M100.319,35.429v-3.573H99.03v-0.832h3.515v0.832h-1.282v3.573H100.319z"/>
		<path fill="#727272" d="M107.552,35.429c-0.091-0.087-0.202-0.198-0.33-0.331c-0.165,0.129-0.35,0.229-0.546,0.301
			c-0.199,0.074-0.418,0.111-0.656,0.111c-0.202,0-0.392-0.027-0.567-0.081c-0.176-0.051-0.331-0.132-0.462-0.236
			c-0.134-0.107-0.236-0.238-0.312-0.4c-0.074-0.162-0.113-0.348-0.113-0.56c0-0.165,0.026-0.313,0.077-0.445
			c0.051-0.128,0.12-0.245,0.208-0.347c0.089-0.102,0.19-0.189,0.305-0.267c0.115-0.078,0.236-0.148,0.362-0.216
			c-0.088-0.161-0.158-0.323-0.211-0.482c-0.054-0.158-0.08-0.313-0.08-0.461c0-0.151,0.032-0.29,0.094-0.418s0.148-0.24,0.26-0.334
			c0.112-0.095,0.246-0.169,0.397-0.222c0.151-0.059,0.32-0.085,0.506-0.085c0.153,0,0.3,0.021,0.441,0.064
			c0.142,0.04,0.265,0.101,0.371,0.182c0.104,0.077,0.188,0.175,0.251,0.29c0.063,0.114,0.093,0.246,0.093,0.397
			c0,0.165-0.03,0.311-0.093,0.435c-0.063,0.121-0.144,0.232-0.244,0.327c-0.102,0.095-0.216,0.179-0.344,0.246
			c-0.129,0.07-0.26,0.138-0.397,0.198c0.066,0.089,0.131,0.176,0.195,0.257c0.063,0.08,0.124,0.155,0.182,0.22
			c0.124,0.157,0.249,0.313,0.378,0.458c0.091-0.146,0.172-0.294,0.238-0.445c0.069-0.148,0.124-0.286,0.164-0.415l0.667,0.311
			c-0.079,0.175-0.17,0.354-0.271,0.536c-0.101,0.178-0.216,0.354-0.343,0.522c0.131,0.145,0.269,0.29,0.409,0.438
			c0.142,0.148,0.288,0.301,0.443,0.452H107.552z M106.14,34.849c0.114,0,0.224-0.02,0.33-0.061c0.104-0.04,0.206-0.095,0.304-0.165
			c-0.102-0.111-0.196-0.216-0.28-0.313c-0.087-0.098-0.154-0.182-0.209-0.249c-0.074-0.088-0.149-0.179-0.226-0.28
			c-0.074-0.098-0.146-0.198-0.216-0.3c-0.114,0.084-0.209,0.179-0.279,0.283c-0.069,0.107-0.104,0.236-0.104,0.391
			c0,0.104,0.018,0.202,0.056,0.287c0.038,0.087,0.087,0.158,0.149,0.219c0.061,0.062,0.132,0.104,0.215,0.139
			C105.959,34.833,106.047,34.849,106.14,34.849z M106.059,32.036c0,0.087,0.018,0.182,0.051,0.282
			c0.033,0.102,0.08,0.206,0.142,0.311c0.186-0.088,0.342-0.186,0.468-0.29c0.129-0.107,0.192-0.239,0.192-0.404
			c0-0.114-0.037-0.206-0.111-0.27c-0.073-0.067-0.168-0.102-0.277-0.102c-0.127,0-0.238,0.044-0.327,0.132
			C106.106,31.779,106.059,31.894,106.059,32.036z"/>
		<path fill="#727272" d="M113.836,35.429v-1.856h-2.081v1.856h-0.938v-4.405h0.938v1.729h2.081v-1.729h0.945v4.405H113.836z"/>
		<path fill="#727272" d="M117.74,35.51c-0.333,0-0.644-0.058-0.925-0.168c-0.281-0.115-0.524-0.271-0.729-0.473
			c-0.206-0.202-0.364-0.444-0.479-0.725c-0.115-0.279-0.172-0.587-0.172-0.917s0.057-0.633,0.172-0.913
			c0.114-0.279,0.272-0.522,0.479-0.725c0.205-0.203,0.448-0.36,0.729-0.472s0.592-0.168,0.925-0.168
			c0.331,0,0.638,0.057,0.919,0.168s0.525,0.269,0.729,0.472c0.206,0.202,0.363,0.445,0.479,0.725
			c0.115,0.28,0.172,0.583,0.172,0.913s-0.057,0.638-0.172,0.917c-0.115,0.28-0.272,0.522-0.479,0.725
			c-0.204,0.202-0.448,0.357-0.729,0.473C118.378,35.453,118.071,35.51,117.74,35.51z M117.74,34.677
			c0.202,0,0.388-0.036,0.553-0.114c0.166-0.074,0.304-0.176,0.419-0.304c0.113-0.127,0.204-0.279,0.269-0.454
			c0.063-0.176,0.095-0.368,0.095-0.577c0-0.205-0.032-0.397-0.095-0.572c-0.064-0.176-0.155-0.331-0.269-0.459
			c-0.115-0.131-0.253-0.232-0.419-0.307c-0.165-0.07-0.351-0.107-0.553-0.107c-0.207,0-0.393,0.037-0.558,0.107
			c-0.165,0.074-0.305,0.176-0.42,0.307c-0.114,0.128-0.204,0.283-0.268,0.459c-0.064,0.175-0.096,0.367-0.096,0.572
			c0,0.209,0.031,0.401,0.096,0.577c0.063,0.175,0.153,0.327,0.268,0.454c0.115,0.128,0.255,0.229,0.42,0.304
			C117.348,34.641,117.533,34.677,117.74,34.677z"/>
		<path fill="#727272" d="M121.56,35.429v-3.573h-1.288v-0.832h3.515v0.832h-1.281v3.573H121.56z"/>
		<path fill="#727272" d="M124.387,35.429v-4.405h3.12v0.832h-2.182v0.91h2.136v0.833h-2.136v0.998h2.182v0.832H124.387z"/>
		<path fill="#727272" d="M128.199,35.429v-4.405h0.946v3.573h1.862v0.832H128.199z"/>
	</g>
</g>
</svg>
