<?xml version="1.0" encoding="utf-8"?>
<!-- Generator: Adobe Illustrator 16.0.0, SVG Export Plug-In . SVG Version: 6.00 Build 0)  -->
<!DOCTYPE svg PUBLIC "-//W3C//DTD SVG 1.1//EN" "http://www.w3.org/Graphics/SVG/1.1/DTD/svg11.dtd">
<svg version="1.1" id="Layer_1" xmlns="http://www.w3.org/2000/svg" xmlns:xlink="http://www.w3.org/1999/xlink" x="0px" y="0px"
	 width="100px" height="43.364px" viewBox="0 0 100 43.364" style="enable-background:new 0 0 100 43.364;" xml:space="preserve">
<g>
	<g>
		<g>
			<path style="fill:#FA3048;" d="M30.865,21.815c-0.087,0-0.173-0.031-0.241-0.091c-4.045-3.536-4.382-5.779-4.284-7.159
				c0.065-0.921,0.493-1.78,1.145-2.299c0.604-0.48,1.382-0.665,2.252-0.528c1.439,0.226,2.149,1.145,2.474,1.771
				c0.512-0.485,1.487-1.118,2.917-0.858l0,0c0.864,0.158,1.54,0.587,1.954,1.241c0.444,0.705,0.565,1.657,0.323,2.546
				c-0.362,1.335-1.42,3.342-6.403,5.349C30.958,21.807,30.911,21.815,30.865,21.815z M27.942,12.842
				c-0.582,0.463-0.832,1.22-0.871,1.775c-0.086,1.205,0.226,3.174,3.865,6.406c4.498-1.854,5.443-3.609,5.759-4.775
				c0.146-0.537,0.161-1.334-0.236-1.963c-0.303-0.481-0.797-0.789-1.463-0.91c-1.692-0.31-2.56,0.972-2.598,1.027
				c-0.08,0.122-0.222,0.188-0.37,0.159c-0.143-0.024-0.258-0.13-0.292-0.272c-0.017-0.063-0.418-1.559-2.113-1.824
				C29.014,12.37,28.429,12.454,27.942,12.842z"/>
		</g>
	</g>
</g>
<g>
	<g>
		<path style="fill:#878787;" d="M10.61,28.358c-0.183,0-0.355-0.113-0.42-0.296L3.863,10.274c-0.17-0.48-0.146-0.998,0.074-1.458
			c0.219-0.461,0.605-0.809,1.085-0.979l4.042-1.439c0.233-0.082,0.487,0.038,0.569,0.271c0.083,0.231-0.039,0.487-0.27,0.569
			L5.321,8.675C5.064,8.767,4.859,8.952,4.743,9.197C4.626,9.443,4.612,9.72,4.703,9.976l6.327,17.788
			c0.082,0.233-0.039,0.486-0.271,0.568C10.71,28.35,10.659,28.358,10.61,28.358z M13.502,26.106c-0.215,0-0.405-0.158-0.439-0.379
			l-2.877-19.04c-0.076-0.505,0.048-1.008,0.351-1.419c0.303-0.41,0.748-0.679,1.252-0.754l4.208-0.636
			c0.236-0.038,0.469,0.13,0.507,0.375c0.037,0.244-0.131,0.469-0.375,0.507l-4.208,0.636c-0.268,0.041-0.506,0.184-0.667,0.402
			c-0.162,0.219-0.229,0.489-0.188,0.756l2.877,19.041c0.037,0.244-0.131,0.471-0.374,0.507
			C13.547,26.105,13.525,26.106,13.502,26.106z M17.404,25.387c-0.001,0-0.002,0-0.003,0c-0.245,0-0.444-0.293-0.442-0.539
			l0.132-20.065c0.003-0.51,0.205-1.01,0.568-1.369c0.363-0.359,0.844-0.543,1.354-0.563l4.091,0.022
			c0.246,0.001,0.444,0.253,0.442,0.499c-0.001,0.245-0.2,0.494-0.446,0.494c-0.001,0-0.002,0-0.002,0l-4.091-0.08
			c-0.272,0.02-0.529,0.075-0.723,0.266c-0.193,0.192-0.301,0.434-0.303,0.706L17.85,24.861
			C17.848,25.106,17.649,25.387,17.404,25.387z M39.652,24.133c-0.024,0-0.049-0.003-0.075-0.006
			c-0.242-0.041-0.405-0.271-0.364-0.515L42.08,6.691c0.045-0.268-0.016-0.539-0.173-0.76c-0.157-0.221-0.392-0.369-0.66-0.414
			l-15.046-2.55c-0.267-0.046-0.538,0.017-0.76,0.174c-0.221,0.158-0.369,0.392-0.414,0.661L22.042,21.41
			c-0.041,0.243-0.269,0.407-0.514,0.365c-0.242-0.04-0.407-0.271-0.365-0.514l2.984-17.608c0.086-0.503,0.362-0.942,0.778-1.238
			c0.415-0.295,0.92-0.411,1.425-0.326l15.045,2.55C41.898,4.724,42.338,5,42.634,5.416c0.294,0.416,0.41,0.922,0.325,1.425
			l-2.868,16.921C40.055,23.978,39.865,24.133,39.652,24.133z M10.525,12.228c0.156,0.189,0.129,0.47-0.061,0.627
			c-0.19,0.156-0.471,0.13-0.627-0.061l-0.821-0.997l-1.359,0.484l-0.023,1.277c-0.003,0.244-0.202,0.408-0.445,0.408
			c-0.003,0-0.005,0-0.008,0c-0.246,0-0.442-0.179-0.438-0.424l0.074-4.272C6.824,8.86,7.096,8.742,7.179,8.712
			c0.083-0.028,0.375-0.094,0.636,0.222L10.525,12.228z M7.692,10.191l-0.02,1.139l0.741-0.263L7.692,10.191z M16.354,9.874
			c0.117,0.216,0.037,0.486-0.179,0.603c-0.215,0.119-0.486,0.04-0.604-0.179l-0.615-1.133l-1.428,0.214l-0.271,1.279
			c-0.044,0.209-0.229,0.353-0.436,0.353c-0.03,0-0.062-0.002-0.092-0.009c-0.241-0.052-0.395-0.289-0.343-0.529l0.888-4.193
			c0.085-0.401,0.376-0.474,0.464-0.486c0.089-0.016,0.387-0.026,0.583,0.335L16.354,9.874z M13.962,7.333l-0.237,1.115l0.778-0.117
			L13.962,7.333z M22.712,8.98c0.083,0.231-0.04,0.487-0.271,0.569c-0.05,0.018-0.1,0.025-0.149,0.025
			c-0.183,0-0.354-0.114-0.419-0.296l-0.432-1.217l-1.443-0.009l-0.467,1.22c-0.088,0.229-0.344,0.347-0.575,0.257
			c-0.229-0.089-0.345-0.347-0.257-0.575l1.533-4.004c0.147-0.383,0.433-0.418,0.533-0.408c0.088,0.001,0.386,0.034,0.523,0.421
			L22.712,8.98z M20.337,7.164l0.787,0.005l-0.38-1.07L20.337,7.164z M29.127,8.783c0.043,0.242-0.117,0.475-0.359,0.519
			c-0.026,0.004-0.054,0.006-0.08,0.006c-0.21,0-0.398-0.151-0.438-0.366l-0.231-1.27l-1.423-0.241L25.939,8.56
			c-0.125,0.213-0.397,0.286-0.609,0.161c-0.213-0.124-0.285-0.396-0.162-0.609l2.156-3.705c0.207-0.355,0.507-0.33,0.591-0.318
			c0.088,0.016,0.376,0.097,0.45,0.5L29.127,8.783z M27.075,6.608l0.776,0.131l-0.204-1.116L27.075,6.608z"/>
	</g>
</g>
<g>
	<g>
		<g>
			<path style="fill:#FFD31C;" d="M17.378,41.046c-4.15,0-7.526-3.375-7.526-7.525c0-4.066,3.183-7.371,7.245-7.52
				c0.241,0.002,0.452,0.183,0.46,0.428c0.009,0.247-0.183,0.454-0.429,0.463c-3.58,0.132-6.385,3.043-6.385,6.629
				c0,3.658,2.976,6.636,6.634,6.636c2.154,0,4.184-1.055,5.427-2.818c0.142-0.201,0.419-0.248,0.621-0.106
				c0.201,0.141,0.25,0.421,0.107,0.62C22.124,39.852,19.822,41.046,17.378,41.046z M36.118,39.297
				c-2.351,0-4.523-1.067-5.961-2.932c-0.151-0.194-0.114-0.474,0.081-0.624c0.194-0.149,0.475-0.114,0.625,0.08
				c1.269,1.642,3.184,2.586,5.256,2.586c3.657,0,6.633-2.978,6.633-6.636s-2.976-6.636-6.633-6.636
				c-1.087,0-2.165,0.27-3.116,0.776c-0.218,0.117-0.486,0.032-0.603-0.183c-0.115-0.216-0.033-0.485,0.185-0.604
				c1.079-0.575,2.3-0.88,3.535-0.88c4.148,0,7.525,3.376,7.525,7.526C43.643,35.92,40.266,39.297,36.118,39.297z M17.378,39.287
				c-3.18,0-5.765-2.586-5.765-5.766c0-2.915,2.179-5.374,5.068-5.722c0.246-0.037,0.466,0.144,0.495,0.387
				c0.03,0.246-0.145,0.467-0.389,0.497c-2.441,0.293-4.284,2.374-4.284,4.838c0,2.688,2.187,4.875,4.875,4.875
				c1.43,0,2.785-0.626,3.713-1.717c0.159-0.189,0.439-0.21,0.628-0.051c0.187,0.159,0.209,0.44,0.05,0.628
				C20.671,38.546,19.07,39.287,17.378,39.287z M36.118,37.536c-1.963,0-3.773-0.983-4.841-2.631
				c-0.134-0.207-0.076-0.482,0.131-0.617c0.206-0.135,0.483-0.074,0.617,0.133c0.903,1.394,2.434,2.225,4.093,2.225
				c2.687,0,4.873-2.188,4.873-4.873c0-2.688-2.187-4.875-4.873-4.875c-0.864,0-1.711,0.229-2.452,0.66
				c-0.212,0.125-0.486,0.053-0.61-0.161c-0.123-0.211-0.052-0.485,0.162-0.608c0.877-0.511,1.879-0.781,2.9-0.781
				c3.179,0,5.764,2.587,5.764,5.766C41.881,34.95,39.296,37.536,36.118,37.536z M16.025,37.166c-0.061,0-0.124-0.012-0.181-0.038
				c-0.156-0.067-0.257-0.218-0.265-0.389l-0.085-2.094l-1.773-1.116c-0.143-0.091-0.223-0.254-0.205-0.424
				c0.018-0.169,0.129-0.312,0.288-0.37l1.965-0.729l0.514-2.031c0.061-0.238,0.305-0.386,0.542-0.322
				c0.238,0.059,0.382,0.302,0.322,0.541l-0.572,2.258c-0.036,0.143-0.139,0.258-0.276,0.31l-1.338,0.494l1.207,0.76
				c0.124,0.08,0.202,0.214,0.208,0.361l0.058,1.424l1.097-0.913c0.112-0.094,0.264-0.124,0.405-0.085l1.696,0.475
				c0.237,0.065,0.375,0.312,0.309,0.549c-0.065,0.236-0.314,0.375-0.548,0.308l-1.472-0.411l-1.61,1.341
				C16.229,37.13,16.128,37.166,16.025,37.166z M25.17,36.869c-4.149,0-7.525-3.377-7.525-7.526s3.376-7.525,7.525-7.525
				c4.151,0,7.527,3.376,7.527,7.525S29.321,36.869,25.17,36.869z M25.17,22.708c-3.657,0-6.633,2.977-6.633,6.635
				c0,3.657,2.976,6.635,6.633,6.635c3.659,0,6.636-2.978,6.636-6.635C31.806,25.684,28.829,22.708,25.17,22.708z M36.661,35.656
				c-0.148,0-0.287-0.074-0.371-0.199l-1.161-1.744l-2.097-0.031c-0.167-0.002-0.322-0.101-0.395-0.254
				c-0.072-0.153-0.052-0.334,0.053-0.469l1.3-1.643l-0.618-2.002c-0.049-0.162-0.003-0.339,0.119-0.455
				c0.124-0.117,0.302-0.154,0.461-0.094l1.965,0.728l1.714-1.205c0.14-0.099,0.321-0.108,0.469-0.028
				c0.149,0.082,0.238,0.24,0.231,0.41l-0.085,2.094l1.677,1.256c0.136,0.103,0.203,0.272,0.17,0.438
				c-0.031,0.167-0.155,0.302-0.317,0.348l-2.018,0.565l-0.678,1.983c-0.055,0.161-0.196,0.275-0.365,0.299
				C36.699,35.653,36.681,35.656,36.661,35.656z M33.95,32.802l1.428,0.023c0.146,0.003,0.283,0.075,0.363,0.198l0.791,1.188
				l0.46-1.351c0.047-0.138,0.16-0.245,0.302-0.285l1.374-0.385l-1.141-0.856c-0.117-0.088-0.184-0.229-0.179-0.375l0.058-1.425
				l-1.167,0.82c-0.12,0.084-0.273,0.105-0.411,0.054l-1.338-0.496l0.42,1.363c0.043,0.141,0.015,0.293-0.076,0.408L33.95,32.802z
				 M25.17,35.107c-3.178,0-5.764-2.586-5.764-5.765s2.586-5.765,5.764-5.765c3.18,0,5.766,2.586,5.766,5.765
				S28.35,35.107,25.17,35.107z M25.17,24.468c-2.687,0-4.874,2.187-4.874,4.874c0,2.687,2.187,4.874,4.874,4.874
				c2.689,0,4.875-2.188,4.875-4.874C30.044,26.655,27.859,24.468,25.17,24.468z M23.109,32.625c-0.092,0-0.185-0.028-0.262-0.086
				c-0.138-0.099-0.207-0.267-0.178-0.435l0.354-2.066l-1.5-1.463c-0.121-0.117-0.165-0.294-0.112-0.456
				c0.052-0.16,0.192-0.278,0.36-0.304l2.073-0.3l0.927-1.88c0.151-0.306,0.649-0.306,0.8,0l0.926,1.88l2.074,0.3
				c0.168,0.025,0.307,0.144,0.359,0.304c0.052,0.162,0.008,0.339-0.113,0.456l-1.499,1.463l0.354,2.066
				c0.028,0.168-0.041,0.336-0.179,0.435c-0.136,0.102-0.318,0.114-0.468,0.034l-1.855-0.976l-1.854,0.976
				C23.251,32.609,23.18,32.625,23.109,32.625z M25.17,30.65c0.071,0,0.143,0.017,0.208,0.052l1.262,0.664l-0.241-1.407
				c-0.023-0.143,0.023-0.292,0.128-0.394l1.022-0.996l-1.411-0.205c-0.145-0.021-0.271-0.111-0.335-0.244L25.17,26.84l-0.63,1.279
				c-0.065,0.133-0.191,0.223-0.335,0.244l-1.413,0.205l1.022,0.996c0.105,0.102,0.152,0.251,0.128,0.394l-0.241,1.407l1.262-0.664
				C25.027,30.667,25.099,30.65,25.17,30.65z M24.14,28.022h0.006H24.14z"/>
		</g>
	</g>
</g>
<g>
	
		<text transform="matrix(1 0 0 1 48.127 24.8286)" style="fill:#888888; font-family:'ProximaNovaBoldAZE-Bold'; font-size:14.4036;">LEVIEN</text>
</g>
<g>
	
		<text transform="matrix(1 0 0 1 49.1104 31.0103)" style="fill:#C4C4C4; font-family:'ProximaNovaBoldAZE-Bold'; font-size:3.8288;">CASINO RESORT &amp; HOTEL</text>
</g>
</svg>
